<?xml version="1.0" encoding="utf-8"?>
<svg xmlns="http://www.w3.org/2000/svg" viewBox="0 0 456 456">
  <g id="Layer_1" transform="matrix(0.399062, 0, 0, 0.3793, 157.702591, 133.512451)" style="">
    <g transform="matrix(1, 0, 0, 1, -423.843414, -350.88916)">
      <g>
        <path d="M176.835,749.082c12.744,45.318-4.307,89.728-38.18,99.302c-33.876,9.545-71.659-19.429-84.406-64.747 c-12.802-45.292,4.304-89.76,38.18-99.305C126.247,674.787,164.032,703.735,176.835,749.082z" style="fill-opacity: 0.6; fill: rgb(147, 198, 255);"/>
        <path d="M262.087,602.252c12.521,44.381-3.739,87.747-36.309,97.008c-32.629,9.177-69.167-19.374-81.685-63.7 c-12.521-44.384,3.794-87.718,36.367-96.953C213.031,529.401,249.569,557.923,262.087,602.252z" style="fill-opacity: 0.6; fill: rgb(147, 198, 255);"/>
        <path d="M412.768,578.29c12.747,45.318-2.944,89.417-35.12,98.481c-32.118,9.064-68.544-20.337-81.404-65.597 c-12.744-45.318,2.947-89.362,35.178-98.481C363.544,503.629,399.966,533.001,412.768,578.29z" style="fill-opacity: 0.6; fill: rgb(147, 198, 255);"/>
        <path d="M558.975,676.118c12.068,42.94-5.493,85.427-39.256,94.943c-33.818,9.545-70.977-17.533-83.101-60.388 c-12.123-42.908,5.438-85.424,39.256-94.969C509.637,606.159,546.854,633.208,558.975,676.118z" style="fill-opacity: 0.6; fill: rgb(147, 198, 255);"/>
        <path d="M259.651,1010.875c0,0-105.192,32.26-99.528-103.069c0,0,17.843-44.184,54.55-89.104 c0,0,29.175-46.736,34.442-63.561c0,0,34.784-89.162,115.561-24.867c0,0,67.807,65.287,93.809,72.282 c0,0,88.199,53.787,44.41,133.772c0,0-42.995,48.688-81.685,27.927C421.208,964.255,325.703,920.892,259.651,1010.875z" style="fill-opacity: 0.6; fill: rgb(147, 198, 255);"/>
      </g>
      <g>
        <path d="M773.838,373.198c-8.834,46.226-44.013,78.373-78.625,71.717c-34.555-6.63-55.286-49.425-46.452-95.679 c8.837-46.194,44.016-78.315,78.57-71.685C761.83,284.12,782.675,326.975,773.838,373.198z" style="fill-opacity: 0.6; fill: rgb(147, 198, 255);"/>
        <path d="M915.798,280.097c-8.611,45.292-42.655,76.816-75.908,70.443c-33.252-6.401-53.192-48.236-44.468-93.498 c8.611-45.231,42.597-76.813,75.85-70.47C904.524,193.003,924.464,234.837,915.798,280.097z" style="fill-opacity: 0.6; fill: rgb(147, 198, 255);"/>
        <path d="M1061.267,326.151c-8.892,46.197-42.655,78.57-75.51,72.282c-32.742-6.259-52.229-48.856-43.337-95.053 c8.837-46.252,42.6-78.654,75.455-72.366C1050.617,237.302,1070.104,279.871,1061.267,326.151z" style="fill-opacity: 0.6; fill: rgb(147, 198, 255);"/>
        <path d="M1148.164,478.988c-8.385,43.844-43.053,73.953-77.607,67.381c-34.442-6.598-55.629-47.441-47.244-91.259 c8.385-43.76,43.166-73.895,77.662-67.297C1135.417,394.411,1156.549,435.256,1148.164,478.988z" style="fill-opacity: 0.6; fill: rgb(147, 198, 255);"/>
        <path d="M730.675,644.397c0,0-108.423-18.211-42.826-136.748c0,0,35.744-31.524,88.652-55.231 c0,0,46.962-28.719,59.254-41.463c0,0,70.98-64.127,114.485,29.511c0,0,31.382,88.768,51.548,106.669 c0,0,54.779,87.547-20.166,139.492c0,0-60.272,24.276-85.595-11.61C896.026,675.016,829.977,593.528,730.675,644.397z" style="fill-opacity: 0.6; fill: rgb(147, 198, 255);"/>
      </g>
    </g>
  </g>
</svg>